<svg width="1024" height="753" viewBox="0 0 1381 1123" fill="none" xmlns="http://www.w3.org/2000/svg">
<g opacity="0.2" filter="url(#filter0_f_175_188)">
<ellipse cx="691.5" cy="372" rx="670.5" ry="350" fill="#35875D"/>
</g>
<path d="M212.035 608C213.53 608 214.662 608.63 215.431 609.891C216.213 611.138 216.605 612.953 216.605 615.336C216.605 617.719 216.213 619.541 215.431 620.802C214.662 622.063 213.53 622.693 212.035 622.693C210.554 622.693 209.422 622.063 208.639 620.802C207.856 619.541 207.465 617.719 207.465 615.336C207.465 612.967 207.856 611.152 208.639 609.891C209.422 608.63 210.554 608 212.035 608ZM208.953 615.336C208.953 617.026 209.107 618.35 209.415 619.306L214.068 610.099C213.579 609.448 212.901 609.122 212.035 609.122C211.071 609.122 210.316 609.635 209.771 610.66C209.226 611.672 208.953 613.23 208.953 615.336ZM212.035 621.55C213.013 621.55 213.775 621.044 214.32 620.033C214.865 619.008 215.137 617.442 215.137 615.336C215.137 613.549 214.963 612.163 214.613 611.18L209.96 620.469C210.463 621.19 211.154 621.55 212.035 621.55Z" fill="url(#paint0_linear_175_188)" fill-opacity="0.6"/>
<path d="M213.293 645.135H216.374V646.236H208.387V645.135H211.951V633.455L208.555 635.471L207.968 634.536L212.161 631.959H213.293V645.135Z" fill="url(#paint1_linear_175_188)" fill-opacity="0.6"/>
<path d="M212.035 655.502C213.53 655.502 214.662 656.133 215.431 657.393C216.213 658.64 216.605 660.455 216.605 662.838C216.605 665.221 216.213 667.043 215.431 668.304C214.662 669.565 213.53 670.195 212.035 670.195C210.554 670.195 209.422 669.565 208.639 668.304C207.856 667.043 207.465 665.221 207.465 662.838C207.465 660.469 207.856 658.654 208.639 657.393C209.422 656.133 210.554 655.502 212.035 655.502ZM208.953 662.838C208.953 664.529 209.107 665.852 209.415 666.808L214.068 657.601C213.579 656.95 212.901 656.624 212.035 656.624C211.071 656.624 210.316 657.137 209.771 658.162C209.226 659.174 208.953 660.732 208.953 662.838ZM212.035 669.052C213.013 669.052 213.775 668.546 214.32 667.535C214.865 666.51 215.137 664.944 215.137 662.838C215.137 661.051 214.963 659.665 214.613 658.682L209.96 667.971C210.463 668.692 211.154 669.052 212.035 669.052Z" fill="url(#paint2_linear_175_188)" fill-opacity="0.6"/>
<path d="M213.293 692.637H216.374V693.738H208.387V692.637H211.951V680.957L208.555 682.973L207.968 682.038L212.161 679.461H213.293V692.637Z" fill="url(#paint3_linear_175_188)" fill-opacity="0.6"/>
<path d="M213.293 716.388H216.374V717.489H208.387V716.388H211.951V704.708L208.555 706.724L207.968 705.789L212.161 703.212H213.293V716.388Z" fill="url(#paint4_linear_175_188)" fill-opacity="0.6"/>
<path d="M212.035 726.755C213.53 726.755 214.662 727.386 215.431 728.646C216.213 729.893 216.605 731.708 216.605 734.091C216.605 736.474 216.213 738.296 215.431 739.557C214.662 740.818 213.53 741.448 212.035 741.448C210.554 741.448 209.422 740.818 208.639 739.557C207.856 738.296 207.465 736.474 207.465 734.091C207.465 731.722 207.856 729.907 208.639 728.646C209.422 727.386 210.554 726.755 212.035 726.755ZM208.953 734.091C208.953 735.782 209.107 737.105 209.415 738.061L214.068 728.854C213.579 728.203 212.901 727.878 212.035 727.878C211.071 727.878 210.316 728.39 209.771 729.415C209.226 730.427 208.953 731.985 208.953 734.091ZM212.035 740.305C213.013 740.305 213.775 739.8 214.32 738.788C214.865 737.763 215.137 736.197 215.137 734.091C215.137 732.304 214.963 730.919 214.613 729.935L209.96 739.225C210.463 739.945 211.154 740.305 212.035 740.305Z" fill="url(#paint5_linear_175_188)" fill-opacity="0.6"/>
<path d="M213.293 763.89H216.374V764.992H208.387V763.89H211.951V752.21L208.555 754.226L207.968 753.291L212.161 750.714H213.293V763.89Z" fill="url(#paint6_linear_175_188)" fill-opacity="0.6"/>
<path d="M212.035 774.257C213.53 774.257 214.662 774.888 215.431 776.149C216.213 777.396 216.605 779.211 216.605 781.594C216.605 783.977 216.213 785.798 215.431 787.059C214.662 788.32 213.53 788.95 212.035 788.95C210.554 788.95 209.422 788.32 208.639 787.059C207.856 785.798 207.465 783.977 207.465 781.594C207.465 779.224 207.856 777.409 208.639 776.149C209.422 774.888 210.554 774.257 212.035 774.257ZM208.953 781.594C208.953 783.284 209.107 784.607 209.415 785.563L214.068 776.356C213.579 775.705 212.901 775.38 212.035 775.38C211.071 775.38 210.316 775.892 209.771 776.918C209.226 777.929 208.953 779.488 208.953 781.594ZM212.035 787.807C213.013 787.807 213.775 787.302 214.32 786.29C214.865 785.265 215.137 783.699 215.137 781.594C215.137 779.806 214.963 778.421 214.613 777.437L209.96 786.727C210.463 787.447 211.154 787.807 212.035 787.807Z" fill="url(#paint7_linear_175_188)" fill-opacity="0.6"/>
<path d="M212.035 798.008C213.53 798.008 214.662 798.639 215.431 799.9C216.213 801.147 216.605 802.962 216.605 805.345C216.605 807.728 216.213 809.549 215.431 810.81C214.662 812.071 213.53 812.701 212.035 812.701C210.554 812.701 209.422 812.071 208.639 810.81C207.856 809.549 207.465 807.728 207.465 805.345C207.465 802.975 207.856 801.16 208.639 799.9C209.422 798.639 210.554 798.008 212.035 798.008ZM208.953 805.345C208.953 807.035 209.107 808.358 209.415 809.314L214.068 800.107C213.579 799.456 212.901 799.131 212.035 799.131C211.071 799.131 210.316 799.643 209.771 800.669C209.226 801.68 208.953 803.239 208.953 805.345ZM212.035 811.558C213.013 811.558 213.775 811.053 214.32 810.041C214.865 809.016 215.137 807.451 215.137 805.345C215.137 803.557 214.963 802.172 214.613 801.188L209.96 810.478C210.463 811.198 211.154 811.558 212.035 811.558Z" fill="url(#paint8_linear_175_188)" fill-opacity="0.6"/>
<path d="M213.293 835.143H216.374V836.245H208.387V835.143H211.951V823.464L208.555 825.48L207.968 824.544L212.161 821.967H213.293V835.143Z" fill="url(#paint9_linear_175_188)" fill-opacity="0.6"/>
<path d="M212.035 845.511C213.53 845.511 214.662 846.141 215.431 847.402C216.213 848.649 216.605 850.464 216.605 852.847C216.605 855.23 216.213 857.052 215.431 858.312C214.662 859.573 213.53 860.204 212.035 860.204C210.554 860.204 209.422 859.573 208.639 858.312C207.856 857.052 207.465 855.23 207.465 852.847C207.465 850.478 207.856 848.663 208.639 847.402C209.422 846.141 210.554 845.511 212.035 845.511ZM208.953 852.847C208.953 854.537 209.107 855.86 209.415 856.816L214.068 847.61C213.579 846.958 212.901 846.633 212.035 846.633C211.071 846.633 210.316 847.145 209.771 848.171C209.226 849.182 208.953 850.741 208.953 852.847ZM212.035 859.061C213.013 859.061 213.775 858.555 214.32 857.543C214.865 856.518 215.137 854.953 215.137 852.847C215.137 851.059 214.963 849.674 214.613 848.69L209.96 857.98C210.463 858.7 211.154 859.061 212.035 859.061Z" fill="url(#paint10_linear_175_188)" fill-opacity="0.6"/>
<path d="M213.293 882.645H216.374V883.747H208.387V882.645H211.951V870.966L208.555 872.982L207.968 872.046L212.161 869.469H213.293V882.645Z" fill="url(#paint11_linear_175_188)" fill-opacity="0.6"/>
<path d="M213.293 906.396H216.374V907.498H208.387V906.396H211.951V894.717L208.555 896.733L207.968 895.798L212.161 893.221H213.293V906.396Z" fill="url(#paint12_linear_175_188)" fill-opacity="0.6"/>
<path d="M250.965 655.502C252.46 655.502 253.592 656.133 254.361 657.393C255.144 658.64 255.535 660.455 255.535 662.838C255.535 665.221 255.144 667.043 254.361 668.304C253.592 669.565 252.46 670.195 250.965 670.195C249.484 670.195 248.352 669.565 247.569 668.304C246.787 667.043 246.395 665.221 246.395 662.838C246.395 660.469 246.787 658.654 247.569 657.393C248.352 656.133 249.484 655.502 250.965 655.502ZM247.884 662.838C247.884 664.529 248.037 665.852 248.345 666.808L252.998 657.601C252.509 656.95 251.832 656.624 250.965 656.624C250.001 656.624 249.246 657.137 248.701 658.162C248.156 659.174 247.884 660.732 247.884 662.838ZM250.965 669.052C251.943 669.052 252.705 668.546 253.25 667.535C253.795 666.51 254.068 664.944 254.068 662.838C254.068 661.051 253.893 659.665 253.543 658.682L248.89 667.971C249.393 668.692 250.085 669.052 250.965 669.052Z" fill="url(#paint13_linear_175_188)" fill-opacity="0.6"/>
<path d="M252.223 692.637H255.304V693.738H247.318V692.637H250.881V680.957L247.485 682.973L246.898 682.038L251.091 679.461H252.223V692.637Z" fill="url(#paint14_linear_175_188)" fill-opacity="0.6"/>
<path d="M250.965 703.004C252.46 703.004 253.592 703.635 254.361 704.895C255.144 706.142 255.535 707.957 255.535 710.34C255.535 712.723 255.144 714.545 254.361 715.806C253.592 717.067 252.46 717.697 250.965 717.697C249.484 717.697 248.352 717.067 247.569 715.806C246.787 714.545 246.395 712.723 246.395 710.34C246.395 707.971 246.787 706.156 247.569 704.895C248.352 703.635 249.484 703.004 250.965 703.004ZM247.884 710.34C247.884 712.031 248.037 713.354 248.345 714.31L252.998 705.103C252.509 704.452 251.832 704.126 250.965 704.126C250.001 704.126 249.246 704.639 248.701 705.664C248.156 706.676 247.884 708.234 247.884 710.34ZM250.965 716.554C251.943 716.554 252.705 716.049 253.25 715.037C253.795 714.012 254.068 712.446 254.068 710.34C254.068 708.553 253.893 707.168 253.543 706.184L248.89 715.474C249.393 716.194 250.085 716.554 250.965 716.554Z" fill="url(#paint15_linear_175_188)" fill-opacity="0.6"/>
<path d="M250.965 726.755C252.46 726.755 253.592 727.386 254.361 728.646C255.144 729.893 255.535 731.708 255.535 734.091C255.535 736.474 255.144 738.296 254.361 739.557C253.592 740.818 252.46 741.448 250.965 741.448C249.484 741.448 248.352 740.818 247.569 739.557C246.787 738.296 246.395 736.474 246.395 734.091C246.395 731.722 246.787 729.907 247.569 728.646C248.352 727.386 249.484 726.755 250.965 726.755ZM247.884 734.091C247.884 735.782 248.037 737.105 248.345 738.061L252.998 728.854C252.509 728.203 251.832 727.878 250.965 727.878C250.001 727.878 249.246 728.39 248.701 729.415C248.156 730.427 247.884 731.985 247.884 734.091ZM250.965 740.305C251.943 740.305 252.705 739.8 253.25 738.788C253.795 737.763 254.068 736.197 254.068 734.091C254.068 732.304 253.893 730.919 253.543 729.935L248.89 739.225C249.393 739.945 250.085 740.305 250.965 740.305Z" fill="url(#paint16_linear_175_188)" fill-opacity="0.6"/>
<path d="M252.223 763.89H255.304V764.992H247.318V763.89H250.881V752.21L247.485 754.226L246.898 753.291L251.091 750.714H252.223V763.89Z" fill="url(#paint17_linear_175_188)" fill-opacity="0.6"/>
<path d="M250.965 774.257C252.46 774.257 253.592 774.888 254.361 776.149C255.144 777.396 255.535 779.211 255.535 781.594C255.535 783.977 255.144 785.798 254.361 787.059C253.592 788.32 252.46 788.95 250.965 788.95C249.484 788.95 248.352 788.32 247.569 787.059C246.787 785.798 246.395 783.977 246.395 781.594C246.395 779.224 246.787 777.409 247.569 776.149C248.352 774.888 249.484 774.257 250.965 774.257ZM247.884 781.594C247.884 783.284 248.037 784.607 248.345 785.563L252.998 776.356C252.509 775.705 251.832 775.38 250.965 775.38C250.001 775.38 249.246 775.892 248.701 776.918C248.156 777.929 247.884 779.488 247.884 781.594ZM250.965 787.807C251.943 787.807 252.705 787.302 253.25 786.29C253.795 785.265 254.068 783.699 254.068 781.594C254.068 779.806 253.893 778.421 253.543 777.437L248.89 786.727C249.393 787.447 250.085 787.807 250.965 787.807Z" fill="url(#paint18_linear_175_188)" fill-opacity="0.6"/>
<path d="M252.223 811.392H255.304V812.494H247.318V811.392H250.881V799.713L247.485 801.728L246.898 800.793L251.091 798.216H252.223V811.392Z" fill="url(#paint19_linear_175_188)" fill-opacity="0.6"/>
<path d="M250.965 821.76C252.46 821.76 253.592 822.39 254.361 823.651C255.144 824.898 255.535 826.713 255.535 829.096C255.535 831.479 255.144 833.301 254.361 834.561C253.592 835.822 252.46 836.453 250.965 836.453C249.484 836.453 248.352 835.822 247.569 834.561C246.787 833.301 246.395 831.479 246.395 829.096C246.395 826.726 246.787 824.911 247.569 823.651C248.352 822.39 249.484 821.76 250.965 821.76ZM247.884 829.096C247.884 830.786 248.037 832.109 248.345 833.065L252.998 823.859C252.509 823.207 251.832 822.882 250.965 822.882C250.001 822.882 249.246 823.394 248.701 824.42C248.156 825.431 247.884 826.99 247.884 829.096ZM250.965 835.31C251.943 835.31 252.705 834.804 253.25 833.792C253.795 832.767 254.068 831.202 254.068 829.096C254.068 827.308 253.893 825.923 253.543 824.939L248.89 834.229C249.393 834.949 250.085 835.31 250.965 835.31Z" fill="url(#paint20_linear_175_188)" fill-opacity="0.6"/>
<path d="M250.965 845.511C252.46 845.511 253.592 846.141 254.361 847.402C255.144 848.649 255.535 850.464 255.535 852.847C255.535 855.23 255.144 857.052 254.361 858.312C253.592 859.573 252.46 860.204 250.965 860.204C249.484 860.204 248.352 859.573 247.569 858.312C246.787 857.052 246.395 855.23 246.395 852.847C246.395 850.478 246.787 848.663 247.569 847.402C248.352 846.141 249.484 845.511 250.965 845.511ZM247.884 852.847C247.884 854.537 248.037 855.86 248.345 856.816L252.998 847.61C252.509 846.958 251.832 846.633 250.965 846.633C250.001 846.633 249.246 847.145 248.701 848.171C248.156 849.182 247.884 850.741 247.884 852.847ZM250.965 859.061C251.943 859.061 252.705 858.555 253.25 857.543C253.795 856.518 254.068 854.953 254.068 852.847C254.068 851.059 253.893 849.674 253.543 848.69L248.89 857.98C249.393 858.7 250.085 859.061 250.965 859.061Z" fill="url(#paint21_linear_175_188)" fill-opacity="0.6"/>
<path d="M252.223 882.645H255.304V883.747H247.318V882.645H250.881V870.966L247.485 872.982L246.898 872.046L251.091 869.469H252.223V882.645Z" fill="url(#paint22_linear_175_188)" fill-opacity="0.6"/>
<path d="M250.965 893.013C252.46 893.013 253.592 893.643 254.361 894.904C255.144 896.151 255.535 897.966 255.535 900.349C255.535 902.732 255.144 904.554 254.361 905.815C253.592 907.075 252.46 907.706 250.965 907.706C249.484 907.706 248.352 907.075 247.569 905.815C246.787 904.554 246.395 902.732 246.395 900.349C246.395 897.98 246.787 896.165 247.569 894.904C248.352 893.643 249.484 893.013 250.965 893.013ZM247.884 900.349C247.884 902.039 248.037 903.362 248.345 904.318L252.998 895.112C252.509 894.461 251.832 894.135 250.965 894.135C250.001 894.135 249.246 894.648 248.701 895.673C248.156 896.684 247.884 898.243 247.884 900.349ZM250.965 906.563C251.943 906.563 252.705 906.057 253.25 905.046C253.795 904.02 254.068 902.455 254.068 900.349C254.068 898.562 253.893 897.176 253.543 896.192L248.89 905.482C249.393 906.202 250.085 906.563 250.965 906.563Z" fill="url(#paint23_linear_175_188)" fill-opacity="0.6"/>
<path d="M252.223 930.147H255.304V931.249H247.318V930.147H250.881V918.468L247.485 920.484L246.898 919.549L251.091 916.972H252.223V930.147Z" fill="url(#paint24_linear_175_188)" fill-opacity="0.6"/>
<path d="M252.223 953.899H255.304V955H247.318V953.899H250.881V942.219L247.485 944.235L246.898 943.3L251.091 940.723H252.223V953.899Z" fill="url(#paint25_linear_175_188)" fill-opacity="0.6"/>
<path d="M192.57 679.253C194.065 679.253 195.197 679.884 195.966 681.144C196.748 682.391 197.14 684.206 197.14 686.589C197.14 688.972 196.748 690.794 195.966 692.055C195.197 693.316 194.065 693.946 192.57 693.946C191.088 693.946 189.956 693.316 189.174 692.055C188.391 690.794 188 688.972 188 686.589C188 684.22 188.391 682.405 189.174 681.144C189.956 679.884 191.088 679.253 192.57 679.253ZM189.488 686.589C189.488 688.28 189.642 689.603 189.95 690.559L194.603 681.352C194.114 680.701 193.436 680.375 192.57 680.375C191.606 680.375 190.851 680.888 190.306 681.913C189.761 682.925 189.488 684.483 189.488 686.589ZM192.57 692.803C193.548 692.803 194.31 692.297 194.855 691.286C195.4 690.261 195.672 688.695 195.672 686.589C195.672 684.802 195.498 683.417 195.148 682.433L190.495 691.722C190.998 692.443 191.689 692.803 192.57 692.803Z" fill="url(#paint26_linear_175_188)" fill-opacity="0.6"/>
<path d="M192.57 703.004C194.065 703.004 195.197 703.635 195.966 704.895C196.748 706.142 197.14 707.957 197.14 710.34C197.14 712.723 196.748 714.545 195.966 715.806C195.197 717.067 194.065 717.697 192.57 717.697C191.088 717.697 189.956 717.067 189.174 715.806C188.391 714.545 188 712.723 188 710.34C188 707.971 188.391 706.156 189.174 704.895C189.956 703.635 191.088 703.004 192.57 703.004ZM189.488 710.34C189.488 712.031 189.642 713.354 189.95 714.31L194.603 705.103C194.114 704.452 193.436 704.126 192.57 704.126C191.606 704.126 190.851 704.639 190.306 705.664C189.761 706.676 189.488 708.234 189.488 710.34ZM192.57 716.554C193.548 716.554 194.31 716.049 194.855 715.037C195.4 714.012 195.672 712.446 195.672 710.34C195.672 708.553 195.498 707.168 195.148 706.184L190.495 715.474C190.998 716.194 191.689 716.554 192.57 716.554Z" fill="url(#paint27_linear_175_188)" fill-opacity="0.6"/>
<path d="M193.828 740.139H196.909V741.24H188.922V740.139H192.486V728.459L189.09 730.475L188.503 729.54L192.696 726.963H193.828V740.139Z" fill="url(#paint28_linear_175_188)" fill-opacity="0.6"/>
<path d="M192.57 750.506C194.065 750.506 195.197 751.137 195.966 752.398C196.748 753.644 197.14 755.459 197.14 757.842C197.14 760.225 196.748 762.047 195.966 763.308C195.197 764.569 194.065 765.199 192.57 765.199C191.088 765.199 189.956 764.569 189.174 763.308C188.391 762.047 188 760.225 188 757.842C188 755.473 188.391 753.658 189.174 752.398C189.956 751.137 191.088 750.506 192.57 750.506ZM189.488 757.842C189.488 759.533 189.642 760.856 189.95 761.812L194.603 752.605C194.114 751.954 193.436 751.629 192.57 751.629C191.606 751.629 190.851 752.141 190.306 753.166C189.761 754.178 189.488 755.737 189.488 757.842ZM192.57 764.056C193.548 764.056 194.31 763.551 194.855 762.539C195.4 761.514 195.672 759.948 195.672 757.842C195.672 756.055 195.498 754.67 195.148 753.686L190.495 762.976C190.998 763.696 191.689 764.056 192.57 764.056Z" fill="url(#paint29_linear_175_188)" fill-opacity="0.6"/>
<path d="M193.828 787.641H196.909V788.743H188.922V787.641H192.486V775.962L189.09 777.977L188.503 777.042L192.696 774.465H193.828V787.641Z" fill="url(#paint30_linear_175_188)" fill-opacity="0.6"/>
<path d="M193.828 811.392H196.909V812.494H188.922V811.392H192.486V799.713L189.09 801.728L188.503 800.793L192.696 798.216H193.828V811.392Z" fill="url(#paint31_linear_175_188)" fill-opacity="0.6"/>
<path d="M232.758 645.135H235.839V646.236H227.853V645.135H231.416V633.455L228.02 635.471L227.433 634.536L231.626 631.959H232.758V645.135Z" fill="url(#paint32_linear_175_188)" fill-opacity="0.6"/>
<path d="M231.5 655.502C232.995 655.502 234.127 656.133 234.896 657.393C235.679 658.64 236.07 660.455 236.07 662.838C236.07 665.221 235.679 667.043 234.896 668.304C234.127 669.565 232.995 670.195 231.5 670.195C230.019 670.195 228.887 669.565 228.104 668.304C227.321 667.043 226.93 665.221 226.93 662.838C226.93 660.469 227.321 658.654 228.104 657.393C228.887 656.133 230.019 655.502 231.5 655.502ZM228.419 662.838C228.419 664.529 228.572 665.852 228.88 666.808L233.533 657.601C233.044 656.95 232.366 656.624 231.5 656.624C230.536 656.624 229.781 657.137 229.236 658.162C228.691 659.174 228.419 660.732 228.419 662.838ZM231.5 669.052C232.478 669.052 233.24 668.546 233.785 667.535C234.33 666.51 234.602 664.944 234.602 662.838C234.602 661.051 234.428 659.665 234.078 658.682L229.425 667.971C229.928 668.692 230.62 669.052 231.5 669.052Z" fill="url(#paint33_linear_175_188)" fill-opacity="0.6"/>
<path d="M232.758 692.637H235.839V693.738H227.853V692.637H231.416V680.957L228.02 682.973L227.433 682.038L231.626 679.461H232.758V692.637Z" fill="url(#paint34_linear_175_188)" fill-opacity="0.6"/>
<path d="M232.758 716.388H235.839V717.489H227.853V716.388H231.416V704.708L228.02 706.724L227.433 705.789L231.626 703.212H232.758V716.388Z" fill="url(#paint35_linear_175_188)" fill-opacity="0.6"/>
<path d="M231.5 726.755C232.995 726.755 234.127 727.386 234.896 728.646C235.679 729.893 236.07 731.708 236.07 734.091C236.07 736.474 235.679 738.296 234.896 739.557C234.127 740.818 232.995 741.448 231.5 741.448C230.019 741.448 228.887 740.818 228.104 739.557C227.321 738.296 226.93 736.474 226.93 734.091C226.93 731.722 227.321 729.907 228.104 728.646C228.887 727.386 230.019 726.755 231.5 726.755ZM228.419 734.091C228.419 735.782 228.572 737.105 228.88 738.061L233.533 728.854C233.044 728.203 232.366 727.878 231.5 727.878C230.536 727.878 229.781 728.39 229.236 729.415C228.691 730.427 228.419 731.985 228.419 734.091ZM231.5 740.305C232.478 740.305 233.24 739.8 233.785 738.788C234.33 737.763 234.602 736.197 234.602 734.091C234.602 732.304 234.428 730.919 234.078 729.935L229.425 739.225C229.928 739.945 230.62 740.305 231.5 740.305Z" fill="url(#paint36_linear_175_188)" fill-opacity="0.6"/>
<path d="M232.758 763.89H235.839V764.992H227.853V763.89H231.416V752.21L228.02 754.226L227.433 753.291L231.626 750.714H232.758V763.89Z" fill="url(#paint37_linear_175_188)" fill-opacity="0.6"/>
<path d="M232.758 787.641H235.839V788.743H227.853V787.641H231.416V775.962L228.02 777.977L227.433 777.042L231.626 774.465H232.758V787.641Z" fill="url(#paint38_linear_175_188)" fill-opacity="0.6"/>
<path d="M231.5 798.008C232.995 798.008 234.127 798.639 234.896 799.9C235.679 801.147 236.07 802.962 236.07 805.345C236.07 807.728 235.679 809.549 234.896 810.81C234.127 812.071 232.995 812.701 231.5 812.701C230.019 812.701 228.887 812.071 228.104 810.81C227.321 809.549 226.93 807.728 226.93 805.345C226.93 802.975 227.321 801.16 228.104 799.9C228.887 798.639 230.019 798.008 231.5 798.008ZM228.419 805.345C228.419 807.035 228.572 808.358 228.88 809.314L233.533 800.107C233.044 799.456 232.366 799.131 231.5 799.131C230.536 799.131 229.781 799.643 229.236 800.669C228.691 801.68 228.419 803.239 228.419 805.345ZM231.5 811.558C232.478 811.558 233.24 811.053 233.785 810.041C234.33 809.016 234.602 807.451 234.602 805.345C234.602 803.557 234.428 802.172 234.078 801.188L229.425 810.478C229.928 811.198 230.62 811.558 231.5 811.558Z" fill="url(#paint39_linear_175_188)" fill-opacity="0.6"/>
<path d="M232.758 835.143H235.839V836.245H227.853V835.143H231.416V823.464L228.02 825.48L227.433 824.544L231.626 821.967H232.758V835.143Z" fill="url(#paint40_linear_175_188)" fill-opacity="0.6"/>
<path d="M231.5 845.511C232.995 845.511 234.127 846.141 234.896 847.402C235.679 848.649 236.07 850.464 236.07 852.847C236.07 855.23 235.679 857.052 234.896 858.312C234.127 859.573 232.995 860.204 231.5 860.204C230.019 860.204 228.887 859.573 228.104 858.312C227.321 857.052 226.93 855.23 226.93 852.847C226.93 850.478 227.321 848.663 228.104 847.402C228.887 846.141 230.019 845.511 231.5 845.511ZM228.419 852.847C228.419 854.537 228.572 855.86 228.88 856.816L233.533 847.61C233.044 846.958 232.366 846.633 231.5 846.633C230.536 846.633 229.781 847.145 229.236 848.171C228.691 849.182 228.419 850.741 228.419 852.847ZM231.5 859.061C232.478 859.061 233.24 858.555 233.785 857.543C234.33 856.518 234.602 854.953 234.602 852.847C234.602 851.059 234.428 849.674 234.078 848.69L229.425 857.98C229.928 858.7 230.62 859.061 231.5 859.061Z" fill="url(#paint41_linear_175_188)" fill-opacity="0.6"/>
<path d="M270.43 631.751C271.926 631.751 273.057 632.381 273.826 633.642C274.609 634.889 275 636.704 275 639.087C275 641.47 274.609 643.292 273.826 644.553C273.057 645.814 271.926 646.444 270.43 646.444C268.949 646.444 267.817 645.814 267.034 644.553C266.252 643.292 265.86 641.47 265.86 639.087C265.86 636.718 266.252 634.903 267.034 633.642C267.817 632.381 268.949 631.751 270.43 631.751ZM267.349 639.087C267.349 640.777 267.502 642.101 267.81 643.057L272.464 633.85C271.974 633.199 271.297 632.873 270.43 632.873C269.466 632.873 268.711 633.386 268.166 634.411C267.621 635.423 267.349 636.981 267.349 639.087ZM270.43 645.301C271.408 645.301 272.17 644.795 272.715 643.784C273.26 642.759 273.533 641.193 273.533 639.087C273.533 637.3 273.358 635.914 273.009 634.931L268.355 644.22C268.858 644.941 269.55 645.301 270.43 645.301Z" fill="url(#paint42_linear_175_188)" fill-opacity="0.6"/>
<path d="M271.688 668.886H274.769V669.987H266.783V668.886H270.346V657.206L266.95 659.222L266.363 658.287L270.556 655.71H271.688V668.886Z" fill="url(#paint43_linear_175_188)" fill-opacity="0.6"/>
<path d="M271.688 692.637H274.769V693.738H266.783V692.637H270.346V680.957L266.95 682.973L266.363 682.038L270.556 679.461H271.688V692.637Z" fill="url(#paint44_linear_175_188)" fill-opacity="0.6"/>
<path d="M270.43 703.004C271.926 703.004 273.057 703.635 273.826 704.895C274.609 706.142 275 707.957 275 710.34C275 712.723 274.609 714.545 273.826 715.806C273.057 717.067 271.926 717.697 270.43 717.697C268.949 717.697 267.817 717.067 267.034 715.806C266.252 714.545 265.86 712.723 265.86 710.34C265.86 707.971 266.252 706.156 267.034 704.895C267.817 703.635 268.949 703.004 270.43 703.004ZM267.349 710.34C267.349 712.031 267.502 713.354 267.81 714.31L272.464 705.103C271.974 704.452 271.297 704.126 270.43 704.126C269.466 704.126 268.711 704.639 268.166 705.664C267.621 706.676 267.349 708.234 267.349 710.34ZM270.43 716.554C271.408 716.554 272.17 716.049 272.715 715.037C273.26 714.012 273.533 712.446 273.533 710.34C273.533 708.553 273.358 707.168 273.009 706.184L268.355 715.474C268.858 716.194 269.55 716.554 270.43 716.554Z" fill="url(#paint45_linear_175_188)" fill-opacity="0.6"/>
<path d="M270.43 726.755C271.926 726.755 273.057 727.386 273.826 728.646C274.609 729.893 275 731.708 275 734.091C275 736.474 274.609 738.296 273.826 739.557C273.057 740.818 271.926 741.448 270.43 741.448C268.949 741.448 267.817 740.818 267.034 739.557C266.252 738.296 265.86 736.474 265.86 734.091C265.86 731.722 266.252 729.907 267.034 728.646C267.817 727.386 268.949 726.755 270.43 726.755ZM267.349 734.091C267.349 735.782 267.502 737.105 267.81 738.061L272.464 728.854C271.974 728.203 271.297 727.878 270.43 727.878C269.466 727.878 268.711 728.39 268.166 729.415C267.621 730.427 267.349 731.985 267.349 734.091ZM270.43 740.305C271.408 740.305 272.17 739.8 272.715 738.788C273.26 737.763 273.533 736.197 273.533 734.091C273.533 732.304 273.358 730.919 273.009 729.935L268.355 739.225C268.858 739.945 269.55 740.305 270.43 740.305Z" fill="url(#paint46_linear_175_188)" fill-opacity="0.6"/>
<g opacity="0.6">
<path d="M1098.93 308C1100.36 308 1101.44 308.605 1102.17 309.815C1102.92 311.011 1103.29 312.753 1103.29 315.04C1103.29 317.327 1102.92 319.075 1102.17 320.285C1101.44 321.495 1100.36 322.1 1098.93 322.1C1097.52 322.1 1096.44 321.495 1095.69 320.285C1094.94 319.075 1094.57 317.327 1094.57 315.04C1094.57 312.767 1094.94 311.025 1095.69 309.815C1096.44 308.605 1097.52 308 1098.93 308ZM1095.99 315.04C1095.99 316.662 1096.14 317.932 1096.43 318.849L1100.87 310.014C1100.4 309.389 1099.76 309.077 1098.93 309.077C1098.01 309.077 1097.29 309.569 1096.77 310.553C1096.25 311.523 1095.99 313.019 1095.99 315.04ZM1098.93 321.003C1099.86 321.003 1100.59 320.518 1101.11 319.547C1101.63 318.564 1101.89 317.061 1101.89 315.04C1101.89 313.325 1101.72 311.995 1101.39 311.051L1096.95 319.966C1097.43 320.658 1098.09 321.003 1098.93 321.003Z" fill="url(#paint47_linear_175_188)"/>
<path d="M1100.13 343.637H1103.07V344.694H1095.45V343.637H1098.85V332.428L1095.61 334.363L1095.05 333.465L1099.05 330.992H1100.13V343.637Z" fill="url(#paint48_linear_175_188)"/>
<path d="M1098.93 353.586C1100.36 353.586 1101.44 354.191 1102.17 355.4C1102.92 356.597 1103.29 358.339 1103.29 360.626C1103.29 362.913 1102.92 364.661 1102.17 365.871C1101.44 367.081 1100.36 367.686 1098.93 367.686C1097.52 367.686 1096.44 367.081 1095.69 365.871C1094.94 364.661 1094.57 362.913 1094.57 360.626C1094.57 358.352 1094.94 356.61 1095.69 355.4C1096.44 354.191 1097.52 353.586 1098.93 353.586ZM1095.99 360.626C1095.99 362.248 1096.14 363.518 1096.43 364.435L1100.87 355.6C1100.4 354.975 1099.76 354.663 1098.93 354.663C1098.01 354.663 1097.29 355.155 1096.77 356.138C1096.25 357.109 1095.99 358.605 1095.99 360.626ZM1098.93 366.589C1099.86 366.589 1100.59 366.104 1101.11 365.133C1101.63 364.149 1101.89 362.647 1101.89 360.626C1101.89 358.911 1101.72 357.581 1101.39 356.637L1096.95 365.552C1097.43 366.243 1098.09 366.589 1098.93 366.589Z" fill="url(#paint49_linear_175_188)"/>
<path d="M1100.13 389.222H1103.07V390.279H1095.45V389.222H1098.85V378.014L1095.61 379.948L1095.05 379.051L1099.05 376.578H1100.13V389.222Z" fill="url(#paint50_linear_175_188)"/>
<path d="M1100.13 412.015H1103.07V413.072H1095.45V412.015H1098.85V400.807L1095.61 402.741L1095.05 401.844L1099.05 399.371H1100.13V412.015Z" fill="url(#paint51_linear_175_188)"/>
<path d="M1098.93 421.964C1100.36 421.964 1101.44 422.569 1102.17 423.779C1102.92 424.976 1103.29 426.717 1103.29 429.004C1103.29 431.291 1102.92 433.039 1102.17 434.249C1101.44 435.459 1100.36 436.064 1098.93 436.064C1097.52 436.064 1096.44 435.459 1095.69 434.249C1094.94 433.039 1094.57 431.291 1094.57 429.004C1094.57 426.731 1094.94 424.989 1095.69 423.779C1096.44 422.569 1097.52 421.964 1098.93 421.964ZM1095.99 429.004C1095.99 430.626 1096.14 431.896 1096.43 432.813L1100.87 423.978C1100.4 423.353 1099.76 423.041 1098.93 423.041C1098.01 423.041 1097.29 423.533 1096.77 424.517C1096.25 425.487 1095.99 426.983 1095.99 429.004ZM1098.93 434.967C1099.86 434.967 1100.59 434.482 1101.11 433.511C1101.63 432.528 1101.89 431.025 1101.89 429.004C1101.89 427.289 1101.72 425.959 1101.39 425.015L1096.95 433.93C1097.43 434.622 1098.09 434.967 1098.93 434.967Z" fill="url(#paint52_linear_175_188)"/>
<path d="M1100.13 457.601H1103.07V458.658H1095.45V457.601H1098.85V446.392L1095.61 448.327L1095.05 447.429L1099.05 444.956H1100.13V457.601Z" fill="url(#paint53_linear_175_188)"/>
<path d="M1098.93 467.55C1100.36 467.55 1101.44 468.155 1102.17 469.365C1102.92 470.561 1103.29 472.303 1103.29 474.59C1103.29 476.877 1102.92 478.625 1102.17 479.835C1101.44 481.045 1100.36 481.65 1098.93 481.65C1097.52 481.65 1096.44 481.045 1095.69 479.835C1094.94 478.625 1094.57 476.877 1094.57 474.59C1094.57 472.316 1094.94 470.574 1095.69 469.365C1096.44 468.155 1097.52 467.55 1098.93 467.55ZM1095.99 474.59C1095.99 476.212 1096.14 477.482 1096.43 478.399L1100.87 469.564C1100.4 468.939 1099.76 468.627 1098.93 468.627C1098.01 468.627 1097.29 469.119 1096.77 470.102C1096.25 471.073 1095.99 472.569 1095.99 474.59ZM1098.93 480.553C1099.86 480.553 1100.59 480.068 1101.11 479.097C1101.63 478.113 1101.89 476.611 1101.89 474.59C1101.89 472.875 1101.72 471.545 1101.39 470.601L1096.95 479.516C1097.43 480.207 1098.09 480.553 1098.93 480.553Z" fill="url(#paint54_linear_175_188)"/>
<path d="M1098.93 490.342C1100.36 490.342 1101.44 490.947 1102.17 492.157C1102.92 493.354 1103.29 495.096 1103.29 497.383C1103.29 499.669 1102.92 501.418 1102.17 502.628C1101.44 503.838 1100.36 504.443 1098.93 504.443C1097.52 504.443 1096.44 503.838 1095.69 502.628C1094.94 501.418 1094.57 499.669 1094.57 497.383C1094.57 495.109 1094.94 493.367 1095.69 492.157C1096.44 490.947 1097.52 490.342 1098.93 490.342ZM1095.99 497.383C1095.99 499.005 1096.14 500.274 1096.43 501.192L1100.87 492.357C1100.4 491.732 1099.76 491.419 1098.93 491.419C1098.01 491.419 1097.29 491.911 1096.77 492.895C1096.25 493.866 1095.99 495.362 1095.99 497.383ZM1098.93 503.346C1099.86 503.346 1100.59 502.86 1101.11 501.89C1101.63 500.906 1101.89 499.404 1101.89 497.383C1101.89 495.667 1101.72 494.338 1101.39 493.394L1096.95 502.309C1097.43 503 1098.09 503.346 1098.93 503.346Z" fill="url(#paint55_linear_175_188)"/>
<path d="M1100.13 525.979H1103.07V527.036H1095.45V525.979H1098.85V514.771L1095.61 516.705L1095.05 515.808L1099.05 513.335H1100.13V525.979Z" fill="url(#paint56_linear_175_188)"/>
<path d="M1098.93 535.928C1100.36 535.928 1101.44 536.533 1102.17 537.743C1102.92 538.94 1103.29 540.681 1103.29 542.968C1103.29 545.255 1102.92 547.003 1102.17 548.213C1101.44 549.423 1100.36 550.028 1098.93 550.028C1097.52 550.028 1096.44 549.423 1095.69 548.213C1094.94 547.003 1094.57 545.255 1094.57 542.968C1094.57 540.695 1094.94 538.953 1095.69 537.743C1096.44 536.533 1097.52 535.928 1098.93 535.928ZM1095.99 542.968C1095.99 544.59 1096.14 545.86 1096.43 546.777L1100.87 537.942C1100.4 537.317 1099.76 537.005 1098.93 537.005C1098.01 537.005 1097.29 537.497 1096.77 538.481C1096.25 539.451 1095.99 540.947 1095.99 542.968ZM1098.93 548.931C1099.86 548.931 1100.59 548.446 1101.11 547.475C1101.63 546.492 1101.89 544.989 1101.89 542.968C1101.89 541.253 1101.72 539.923 1101.39 538.979L1096.95 547.894C1097.43 548.586 1098.09 548.931 1098.93 548.931Z" fill="url(#paint57_linear_175_188)"/>
<path d="M1100.13 571.565H1103.07V572.622H1095.45V571.565H1098.85V560.356L1095.61 562.291L1095.05 561.393L1099.05 558.92H1100.13V571.565Z" fill="url(#paint58_linear_175_188)"/>
<path d="M1100.13 594.357H1103.07V595.414H1095.45V594.357H1098.85V583.149L1095.61 585.084L1095.05 584.186L1099.05 581.713H1100.13V594.357Z" fill="url(#paint59_linear_175_188)"/>
<path d="M1136.07 353.586C1137.5 353.586 1138.58 354.191 1139.31 355.4C1140.06 356.597 1140.43 358.339 1140.43 360.626C1140.43 362.913 1140.06 364.661 1139.31 365.871C1138.58 367.081 1137.5 367.686 1136.07 367.686C1134.66 367.686 1133.58 367.081 1132.83 365.871C1132.08 364.661 1131.71 362.913 1131.71 360.626C1131.71 358.352 1132.08 356.61 1132.83 355.4C1133.58 354.191 1134.66 353.586 1136.07 353.586ZM1133.13 360.626C1133.13 362.248 1133.28 363.518 1133.57 364.435L1138.01 355.6C1137.54 354.975 1136.9 354.663 1136.07 354.663C1135.15 354.663 1134.43 355.155 1133.91 356.138C1133.39 357.109 1133.13 358.605 1133.13 360.626ZM1136.07 366.589C1137 366.589 1137.73 366.104 1138.25 365.133C1138.77 364.149 1139.03 362.647 1139.03 360.626C1139.03 358.911 1138.86 357.581 1138.53 356.637L1134.09 365.552C1134.57 366.243 1135.23 366.589 1136.07 366.589Z" fill="url(#paint60_linear_175_188)"/>
<path d="M1137.27 389.222H1140.21V390.279H1132.59V389.222H1135.99V378.014L1132.75 379.948L1132.19 379.051L1136.19 376.578H1137.27V389.222Z" fill="url(#paint61_linear_175_188)"/>
<path d="M1136.07 399.171C1137.5 399.171 1138.58 399.776 1139.31 400.986C1140.06 402.183 1140.43 403.924 1140.43 406.211C1140.43 408.498 1140.06 410.247 1139.31 411.457C1138.58 412.666 1137.5 413.271 1136.07 413.271C1134.66 413.271 1133.58 412.666 1132.83 411.457C1132.08 410.247 1131.71 408.498 1131.71 406.211C1131.71 403.938 1132.08 402.196 1132.83 400.986C1133.58 399.776 1134.66 399.171 1136.07 399.171ZM1133.13 406.211C1133.13 407.833 1133.28 409.103 1133.57 410.021L1138.01 401.186C1137.54 400.561 1136.9 400.248 1136.07 400.248C1135.15 400.248 1134.43 400.74 1133.91 401.724C1133.39 402.695 1133.13 404.19 1133.13 406.211ZM1136.07 412.174C1137 412.174 1137.73 411.689 1138.25 410.719C1138.77 409.735 1139.03 408.232 1139.03 406.211C1139.03 404.496 1138.86 403.167 1138.53 402.223L1134.09 411.137C1134.57 411.829 1135.23 412.174 1136.07 412.174Z" fill="url(#paint62_linear_175_188)"/>
<path d="M1136.07 421.964C1137.5 421.964 1138.58 422.569 1139.31 423.779C1140.06 424.976 1140.43 426.717 1140.43 429.004C1140.43 431.291 1140.06 433.039 1139.31 434.249C1138.58 435.459 1137.5 436.064 1136.07 436.064C1134.66 436.064 1133.58 435.459 1132.83 434.249C1132.08 433.039 1131.71 431.291 1131.71 429.004C1131.71 426.731 1132.08 424.989 1132.83 423.779C1133.58 422.569 1134.66 421.964 1136.07 421.964ZM1133.13 429.004C1133.13 430.626 1133.28 431.896 1133.57 432.813L1138.01 423.978C1137.54 423.353 1136.9 423.041 1136.07 423.041C1135.15 423.041 1134.43 423.533 1133.91 424.517C1133.39 425.487 1133.13 426.983 1133.13 429.004ZM1136.07 434.967C1137 434.967 1137.73 434.482 1138.25 433.511C1138.77 432.528 1139.03 431.025 1139.03 429.004C1139.03 427.289 1138.86 425.959 1138.53 425.015L1134.09 433.93C1134.57 434.622 1135.23 434.967 1136.07 434.967Z" fill="url(#paint63_linear_175_188)"/>
<path d="M1137.27 457.601H1140.21V458.658H1132.59V457.601H1135.99V446.392L1132.75 448.327L1132.19 447.429L1136.19 444.956H1137.27V457.601Z" fill="url(#paint64_linear_175_188)"/>
<path d="M1136.07 467.55C1137.5 467.55 1138.58 468.155 1139.31 469.365C1140.06 470.561 1140.43 472.303 1140.43 474.59C1140.43 476.877 1140.06 478.625 1139.31 479.835C1138.58 481.045 1137.5 481.65 1136.07 481.65C1134.66 481.65 1133.58 481.045 1132.83 479.835C1132.08 478.625 1131.71 476.877 1131.71 474.59C1131.71 472.316 1132.08 470.574 1132.83 469.365C1133.58 468.155 1134.66 467.55 1136.07 467.55ZM1133.13 474.59C1133.13 476.212 1133.28 477.482 1133.57 478.399L1138.01 469.564C1137.54 468.939 1136.9 468.627 1136.07 468.627C1135.15 468.627 1134.43 469.119 1133.91 470.102C1133.39 471.073 1133.13 472.569 1133.13 474.59ZM1136.07 480.553C1137 480.553 1137.73 480.068 1138.25 479.097C1138.77 478.113 1139.03 476.611 1139.03 474.59C1139.03 472.875 1138.86 471.545 1138.53 470.601L1134.09 479.516C1134.57 480.207 1135.23 480.553 1136.07 480.553Z" fill="url(#paint65_linear_175_188)"/>
<path d="M1137.27 503.186H1140.21V504.243H1132.59V503.186H1135.99V491.978L1132.75 493.912L1132.19 493.015L1136.19 490.542H1137.27V503.186Z" fill="url(#paint66_linear_175_188)"/>
<path d="M1136.07 513.135C1137.5 513.135 1138.58 513.74 1139.31 514.95C1140.06 516.147 1140.43 517.888 1140.43 520.175C1140.43 522.462 1140.06 524.211 1139.31 525.421C1138.58 526.63 1137.5 527.235 1136.07 527.235C1134.66 527.235 1133.58 526.63 1132.83 525.421C1132.08 524.211 1131.71 522.462 1131.71 520.175C1131.71 517.902 1132.08 516.16 1132.83 514.95C1133.58 513.74 1134.66 513.135 1136.07 513.135ZM1133.13 520.175C1133.13 521.797 1133.28 523.067 1133.57 523.985L1138.01 515.15C1137.54 514.525 1136.9 514.212 1136.07 514.212C1135.15 514.212 1134.43 514.704 1133.91 515.688C1133.39 516.659 1133.13 518.154 1133.13 520.175ZM1136.07 526.139C1137 526.139 1137.73 525.653 1138.25 524.683C1138.77 523.699 1139.03 522.196 1139.03 520.175C1139.03 518.46 1138.86 517.131 1138.53 516.187L1134.09 525.101C1134.57 525.793 1135.23 526.139 1136.07 526.139Z" fill="url(#paint67_linear_175_188)"/>
<path d="M1136.07 535.928C1137.5 535.928 1138.58 536.533 1139.31 537.743C1140.06 538.94 1140.43 540.681 1140.43 542.968C1140.43 545.255 1140.06 547.003 1139.31 548.213C1138.58 549.423 1137.5 550.028 1136.07 550.028C1134.66 550.028 1133.58 549.423 1132.83 548.213C1132.08 547.003 1131.71 545.255 1131.71 542.968C1131.71 540.695 1132.08 538.953 1132.83 537.743C1133.58 536.533 1134.66 535.928 1136.07 535.928ZM1133.13 542.968C1133.13 544.59 1133.28 545.86 1133.57 546.777L1138.01 537.942C1137.54 537.317 1136.9 537.005 1136.07 537.005C1135.15 537.005 1134.43 537.497 1133.91 538.481C1133.39 539.451 1133.13 540.947 1133.13 542.968ZM1136.07 548.931C1137 548.931 1137.73 548.446 1138.25 547.475C1138.77 546.492 1139.03 544.989 1139.03 542.968C1139.03 541.253 1138.86 539.923 1138.53 538.979L1134.09 547.894C1134.57 548.586 1135.23 548.931 1136.07 548.931Z" fill="url(#paint68_linear_175_188)"/>
<path d="M1137.27 571.565H1140.21V572.622H1132.59V571.565H1135.99V560.356L1132.75 562.291L1132.19 561.393L1136.19 558.92H1137.27V571.565Z" fill="url(#paint69_linear_175_188)"/>
<path d="M1136.07 581.514C1137.5 581.514 1138.58 582.119 1139.31 583.329C1140.06 584.525 1140.43 586.267 1140.43 588.554C1140.43 590.841 1140.06 592.589 1139.31 593.799C1138.58 595.009 1137.5 595.614 1136.07 595.614C1134.66 595.614 1133.58 595.009 1132.83 593.799C1132.08 592.589 1131.71 590.841 1131.71 588.554C1131.71 586.28 1132.08 584.538 1132.83 583.329C1133.58 582.119 1134.66 581.514 1136.07 581.514ZM1133.13 588.554C1133.13 590.176 1133.28 591.446 1133.57 592.363L1138.01 583.528C1137.54 582.903 1136.9 582.591 1136.07 582.591C1135.15 582.591 1134.43 583.083 1133.91 584.066C1133.39 585.037 1133.13 586.533 1133.13 588.554ZM1136.07 594.517C1137 594.517 1137.73 594.032 1138.25 593.061C1138.77 592.077 1139.03 590.575 1139.03 588.554C1139.03 586.839 1138.86 585.509 1138.53 584.565L1134.09 593.48C1134.57 594.171 1135.23 594.517 1136.07 594.517Z" fill="url(#paint70_linear_175_188)"/>
<path d="M1137.27 617.15H1140.21V618.207H1132.59V617.15H1135.99V605.942L1132.75 607.876L1132.19 606.979L1136.19 604.506H1137.27V617.15Z" fill="url(#paint71_linear_175_188)"/>
<path d="M1137.27 639.943H1140.21V641H1132.59V639.943H1135.99V628.735L1132.75 630.669L1132.19 629.772L1136.19 627.299H1137.27V639.943Z" fill="url(#paint72_linear_175_188)"/>
<path d="M1080.36 376.378C1081.79 376.378 1082.87 376.983 1083.6 378.193C1084.35 379.39 1084.72 381.132 1084.72 383.419C1084.72 385.705 1084.35 387.454 1083.6 388.664C1082.87 389.874 1081.79 390.479 1080.36 390.479C1078.95 390.479 1077.87 389.874 1077.12 388.664C1076.37 387.454 1076 385.705 1076 383.419C1076 381.145 1076.37 379.403 1077.12 378.193C1077.87 376.983 1078.95 376.378 1080.36 376.378ZM1077.42 383.419C1077.42 385.041 1077.57 386.31 1077.86 387.228L1082.3 378.393C1081.83 377.768 1081.19 377.455 1080.36 377.455C1079.44 377.455 1078.72 377.947 1078.2 378.931C1077.68 379.902 1077.42 381.398 1077.42 383.419ZM1080.36 389.382C1081.29 389.382 1082.02 388.896 1082.54 387.926C1083.06 386.942 1083.32 385.439 1083.32 383.419C1083.32 381.703 1083.15 380.374 1082.82 379.43L1078.38 388.345C1078.86 389.036 1079.52 389.382 1080.36 389.382Z" fill="url(#paint73_linear_175_188)"/>
<path d="M1080.36 399.171C1081.79 399.171 1082.87 399.776 1083.6 400.986C1084.35 402.183 1084.72 403.924 1084.72 406.211C1084.72 408.498 1084.35 410.247 1083.6 411.457C1082.87 412.666 1081.79 413.271 1080.36 413.271C1078.95 413.271 1077.87 412.666 1077.12 411.457C1076.37 410.247 1076 408.498 1076 406.211C1076 403.938 1076.37 402.196 1077.12 400.986C1077.87 399.776 1078.95 399.171 1080.36 399.171ZM1077.42 406.211C1077.42 407.833 1077.57 409.103 1077.86 410.021L1082.3 401.186C1081.83 400.561 1081.19 400.248 1080.36 400.248C1079.44 400.248 1078.72 400.74 1078.2 401.724C1077.68 402.695 1077.42 404.19 1077.42 406.211ZM1080.36 412.174C1081.29 412.174 1082.02 411.689 1082.54 410.719C1083.06 409.735 1083.32 408.232 1083.32 406.211C1083.32 404.496 1083.15 403.167 1082.82 402.223L1078.38 411.137C1078.86 411.829 1079.52 412.174 1080.36 412.174Z" fill="url(#paint74_linear_175_188)"/>
<path d="M1081.56 434.808H1084.5V435.865H1076.88V434.808H1080.28V423.599L1077.04 425.534L1076.48 424.636L1080.48 422.163H1081.56V434.808Z" fill="url(#paint75_linear_175_188)"/>
<path d="M1080.36 444.757C1081.79 444.757 1082.87 445.362 1083.6 446.572C1084.35 447.768 1084.72 449.51 1084.72 451.797C1084.72 454.084 1084.35 455.832 1083.6 457.042C1082.87 458.252 1081.79 458.857 1080.36 458.857C1078.95 458.857 1077.87 458.252 1077.12 457.042C1076.37 455.832 1076 454.084 1076 451.797C1076 449.523 1076.37 447.782 1077.12 446.572C1077.87 445.362 1078.95 444.757 1080.36 444.757ZM1077.42 451.797C1077.42 453.419 1077.57 454.689 1077.86 455.606L1082.3 446.771C1081.83 446.146 1081.19 445.834 1080.36 445.834C1079.44 445.834 1078.72 446.326 1078.2 447.31C1077.68 448.28 1077.42 449.776 1077.42 451.797ZM1080.36 457.76C1081.29 457.76 1082.02 457.275 1082.54 456.304C1083.06 455.32 1083.32 453.818 1083.32 451.797C1083.32 450.082 1083.15 448.752 1082.82 447.808L1078.38 456.723C1078.86 457.414 1079.52 457.76 1080.36 457.76Z" fill="url(#paint76_linear_175_188)"/>
<path d="M1081.56 480.393H1084.5V481.45H1076.88V480.393H1080.28V469.185L1077.04 471.12L1076.48 470.222L1080.48 467.749H1081.56V480.393Z" fill="url(#paint77_linear_175_188)"/>
<path d="M1081.56 503.186H1084.5V504.243H1076.88V503.186H1080.28V491.978L1077.04 493.912L1076.48 493.015L1080.48 490.542H1081.56V503.186Z" fill="url(#paint78_linear_175_188)"/>
<path d="M1118.7 343.637H1121.64V344.694H1114.02V343.637H1117.42V332.428L1114.18 334.363L1113.62 333.465L1117.62 330.992H1118.7V343.637Z" fill="url(#paint79_linear_175_188)"/>
<path d="M1117.5 353.586C1118.93 353.586 1120.01 354.191 1120.74 355.4C1121.49 356.597 1121.86 358.339 1121.86 360.626C1121.86 362.913 1121.49 364.661 1120.74 365.871C1120.01 367.081 1118.93 367.686 1117.5 367.686C1116.09 367.686 1115.01 367.081 1114.26 365.871C1113.51 364.661 1113.14 362.913 1113.14 360.626C1113.14 358.352 1113.51 356.61 1114.26 355.4C1115.01 354.191 1116.09 353.586 1117.5 353.586ZM1114.56 360.626C1114.56 362.248 1114.71 363.518 1115 364.435L1119.44 355.6C1118.97 354.975 1118.33 354.663 1117.5 354.663C1116.58 354.663 1115.86 355.155 1115.34 356.138C1114.82 357.109 1114.56 358.605 1114.56 360.626ZM1117.5 366.589C1118.43 366.589 1119.16 366.104 1119.68 365.133C1120.2 364.149 1120.46 362.647 1120.46 360.626C1120.46 358.911 1120.29 357.581 1119.96 356.637L1115.52 365.552C1116 366.243 1116.66 366.589 1117.5 366.589Z" fill="url(#paint80_linear_175_188)"/>
<path d="M1118.7 389.222H1121.64V390.279H1114.02V389.222H1117.42V378.014L1114.18 379.948L1113.62 379.051L1117.62 376.578H1118.7V389.222Z" fill="url(#paint81_linear_175_188)"/>
<path d="M1118.7 412.015H1121.64V413.072H1114.02V412.015H1117.42V400.807L1114.18 402.741L1113.62 401.844L1117.62 399.371H1118.7V412.015Z" fill="url(#paint82_linear_175_188)"/>
<path d="M1117.5 421.964C1118.93 421.964 1120.01 422.569 1120.74 423.779C1121.49 424.976 1121.86 426.717 1121.86 429.004C1121.86 431.291 1121.49 433.039 1120.74 434.249C1120.01 435.459 1118.93 436.064 1117.5 436.064C1116.09 436.064 1115.01 435.459 1114.26 434.249C1113.51 433.039 1113.14 431.291 1113.14 429.004C1113.14 426.731 1113.51 424.989 1114.26 423.779C1115.01 422.569 1116.09 421.964 1117.5 421.964ZM1114.56 429.004C1114.56 430.626 1114.71 431.896 1115 432.813L1119.44 423.978C1118.97 423.353 1118.33 423.041 1117.5 423.041C1116.58 423.041 1115.86 423.533 1115.34 424.517C1114.82 425.487 1114.56 426.983 1114.56 429.004ZM1117.5 434.967C1118.43 434.967 1119.16 434.482 1119.68 433.511C1120.2 432.528 1120.46 431.025 1120.46 429.004C1120.46 427.289 1120.29 425.959 1119.96 425.015L1115.52 433.93C1116 434.622 1116.66 434.967 1117.5 434.967Z" fill="url(#paint83_linear_175_188)"/>
<path d="M1118.7 457.601H1121.64V458.658H1114.02V457.601H1117.42V446.392L1114.18 448.327L1113.62 447.429L1117.62 444.956H1118.7V457.601Z" fill="url(#paint84_linear_175_188)"/>
<path d="M1118.7 480.393H1121.64V481.45H1114.02V480.393H1117.42V469.185L1114.18 471.12L1113.62 470.222L1117.62 467.749H1118.7V480.393Z" fill="url(#paint85_linear_175_188)"/>
<path d="M1117.5 490.342C1118.93 490.342 1120.01 490.947 1120.74 492.157C1121.49 493.354 1121.86 495.096 1121.86 497.383C1121.86 499.669 1121.49 501.418 1120.74 502.628C1120.01 503.838 1118.93 504.443 1117.5 504.443C1116.09 504.443 1115.01 503.838 1114.26 502.628C1113.51 501.418 1113.14 499.669 1113.14 497.383C1113.14 495.109 1113.51 493.367 1114.26 492.157C1115.01 490.947 1116.09 490.342 1117.5 490.342ZM1114.56 497.383C1114.56 499.005 1114.71 500.274 1115 501.192L1119.44 492.357C1118.97 491.732 1118.33 491.419 1117.5 491.419C1116.58 491.419 1115.86 491.911 1115.34 492.895C1114.82 493.866 1114.56 495.362 1114.56 497.383ZM1117.5 503.346C1118.43 503.346 1119.16 502.86 1119.68 501.89C1120.2 500.906 1120.46 499.404 1120.46 497.383C1120.46 495.667 1120.29 494.338 1119.96 493.394L1115.52 502.309C1116 503 1116.66 503.346 1117.5 503.346Z" fill="url(#paint86_linear_175_188)"/>
<path d="M1118.7 525.979H1121.64V527.036H1114.02V525.979H1117.42V514.771L1114.18 516.705L1113.62 515.808L1117.62 513.335H1118.7V525.979Z" fill="url(#paint87_linear_175_188)"/>
<path d="M1117.5 535.928C1118.93 535.928 1120.01 536.533 1120.74 537.743C1121.49 538.94 1121.86 540.681 1121.86 542.968C1121.86 545.255 1121.49 547.003 1120.74 548.213C1120.01 549.423 1118.93 550.028 1117.5 550.028C1116.09 550.028 1115.01 549.423 1114.26 548.213C1113.51 547.003 1113.14 545.255 1113.14 542.968C1113.14 540.695 1113.51 538.953 1114.26 537.743C1115.01 536.533 1116.09 535.928 1117.5 535.928ZM1114.56 542.968C1114.56 544.59 1114.71 545.86 1115 546.777L1119.44 537.942C1118.97 537.317 1118.33 537.005 1117.5 537.005C1116.58 537.005 1115.86 537.497 1115.34 538.481C1114.82 539.451 1114.56 540.947 1114.56 542.968ZM1117.5 548.931C1118.43 548.931 1119.16 548.446 1119.68 547.475C1120.2 546.492 1120.46 544.989 1120.46 542.968C1120.46 541.253 1120.29 539.923 1119.96 538.979L1115.52 547.894C1116 548.586 1116.66 548.931 1117.5 548.931Z" fill="url(#paint88_linear_175_188)"/>
<path d="M1154.64 330.793C1156.07 330.793 1157.15 331.398 1157.88 332.608C1158.63 333.804 1159 335.546 1159 337.833C1159 340.12 1158.63 341.868 1157.88 343.078C1157.15 344.288 1156.07 344.893 1154.64 344.893C1153.23 344.893 1152.15 344.288 1151.4 343.078C1150.65 341.868 1150.28 340.12 1150.28 337.833C1150.28 335.559 1150.65 333.818 1151.4 332.608C1152.15 331.398 1153.23 330.793 1154.64 330.793ZM1151.7 337.833C1151.7 339.455 1151.85 340.725 1152.14 341.642L1156.58 332.807C1156.11 332.182 1155.47 331.87 1154.64 331.87C1153.72 331.87 1153 332.362 1152.48 333.346C1151.96 334.316 1151.7 335.812 1151.7 337.833ZM1154.64 343.796C1155.57 343.796 1156.3 343.311 1156.82 342.34C1157.34 341.356 1157.6 339.854 1157.6 337.833C1157.6 336.118 1157.43 334.788 1157.1 333.844L1152.66 342.759C1153.14 343.45 1153.8 343.796 1154.64 343.796Z" fill="url(#paint89_linear_175_188)"/>
<path d="M1155.84 366.429H1158.78V367.486H1151.16V366.429H1154.56V355.221L1151.32 357.156L1150.76 356.258L1154.76 353.785H1155.84V366.429Z" fill="url(#paint90_linear_175_188)"/>
<path d="M1155.84 389.222H1158.78V390.279H1151.16V389.222H1154.56V378.014L1151.32 379.948L1150.76 379.051L1154.76 376.578H1155.84V389.222Z" fill="url(#paint91_linear_175_188)"/>
<path d="M1154.64 399.171C1156.07 399.171 1157.15 399.776 1157.88 400.986C1158.63 402.183 1159 403.924 1159 406.211C1159 408.498 1158.63 410.247 1157.88 411.457C1157.15 412.666 1156.07 413.271 1154.64 413.271C1153.23 413.271 1152.15 412.666 1151.4 411.457C1150.65 410.247 1150.28 408.498 1150.28 406.211C1150.28 403.938 1150.65 402.196 1151.4 400.986C1152.15 399.776 1153.23 399.171 1154.64 399.171ZM1151.7 406.211C1151.7 407.833 1151.85 409.103 1152.14 410.021L1156.58 401.186C1156.11 400.561 1155.47 400.248 1154.64 400.248C1153.72 400.248 1153 400.74 1152.48 401.724C1151.96 402.695 1151.7 404.19 1151.7 406.211ZM1154.64 412.174C1155.57 412.174 1156.3 411.689 1156.82 410.719C1157.34 409.735 1157.6 408.232 1157.6 406.211C1157.6 404.496 1157.43 403.167 1157.1 402.223L1152.66 411.137C1153.14 411.829 1153.8 412.174 1154.64 412.174Z" fill="url(#paint92_linear_175_188)"/>
<path d="M1154.64 421.964C1156.07 421.964 1157.15 422.569 1157.88 423.779C1158.63 424.976 1159 426.717 1159 429.004C1159 431.291 1158.63 433.039 1157.88 434.249C1157.15 435.459 1156.07 436.064 1154.64 436.064C1153.23 436.064 1152.15 435.459 1151.4 434.249C1150.65 433.039 1150.28 431.291 1150.28 429.004C1150.28 426.731 1150.65 424.989 1151.4 423.779C1152.15 422.569 1153.23 421.964 1154.64 421.964ZM1151.7 429.004C1151.7 430.626 1151.85 431.896 1152.14 432.813L1156.58 423.978C1156.11 423.353 1155.47 423.041 1154.64 423.041C1153.72 423.041 1153 423.533 1152.48 424.517C1151.96 425.487 1151.7 426.983 1151.7 429.004ZM1154.64 434.967C1155.57 434.967 1156.3 434.482 1156.82 433.511C1157.34 432.528 1157.6 431.025 1157.6 429.004C1157.6 427.289 1157.43 425.959 1157.1 425.015L1152.66 433.93C1153.14 434.622 1153.8 434.967 1154.64 434.967Z" fill="url(#paint93_linear_175_188)"/>
</g>
<defs>
<filter id="filter0_f_175_188" x="-379.19" y="-378.19" width="2141.38" height="1500.38" filterUnits="userSpaceOnUse" color-interpolation-filters="sRGB">
<feFlood flood-opacity="0" result="BackgroundImageFix"/>
<feBlend mode="normal" in="SourceGraphic" in2="BackgroundImageFix" result="shape"/>
<feGaussianBlur stdDeviation="200.095" result="effect1_foregroundBlur_175_188"/>
</filter>
<linearGradient id="paint0_linear_175_188" x1="231.5" y1="608" x2="231.5" y2="919.381" gradientUnits="userSpaceOnUse">
<stop stop-color="#F7DD43"/>
<stop offset="1" stop-color="#F7DD43" stop-opacity="0"/>
</linearGradient>
<linearGradient id="paint1_linear_175_188" x1="231.5" y1="608" x2="231.5" y2="919.381" gradientUnits="userSpaceOnUse">
<stop stop-color="#F7DD43"/>
<stop offset="1" stop-color="#F7DD43" stop-opacity="0"/>
</linearGradient>
<linearGradient id="paint2_linear_175_188" x1="231.5" y1="608" x2="231.5" y2="919.381" gradientUnits="userSpaceOnUse">
<stop stop-color="#F7DD43"/>
<stop offset="1" stop-color="#F7DD43" stop-opacity="0"/>
</linearGradient>
<linearGradient id="paint3_linear_175_188" x1="231.5" y1="608" x2="231.5" y2="919.381" gradientUnits="userSpaceOnUse">
<stop stop-color="#F7DD43"/>
<stop offset="1" stop-color="#F7DD43" stop-opacity="0"/>
</linearGradient>
<linearGradient id="paint4_linear_175_188" x1="231.5" y1="608" x2="231.5" y2="919.381" gradientUnits="userSpaceOnUse">
<stop stop-color="#F7DD43"/>
<stop offset="1" stop-color="#F7DD43" stop-opacity="0"/>
</linearGradient>
<linearGradient id="paint5_linear_175_188" x1="231.5" y1="608" x2="231.5" y2="919.381" gradientUnits="userSpaceOnUse">
<stop stop-color="#F7DD43"/>
<stop offset="1" stop-color="#F7DD43" stop-opacity="0"/>
</linearGradient>
<linearGradient id="paint6_linear_175_188" x1="231.5" y1="608" x2="231.5" y2="919.381" gradientUnits="userSpaceOnUse">
<stop stop-color="#F7DD43"/>
<stop offset="1" stop-color="#F7DD43" stop-opacity="0"/>
</linearGradient>
<linearGradient id="paint7_linear_175_188" x1="231.5" y1="608" x2="231.5" y2="919.381" gradientUnits="userSpaceOnUse">
<stop stop-color="#F7DD43"/>
<stop offset="1" stop-color="#F7DD43" stop-opacity="0"/>
</linearGradient>
<linearGradient id="paint8_linear_175_188" x1="231.5" y1="608" x2="231.5" y2="919.381" gradientUnits="userSpaceOnUse">
<stop stop-color="#F7DD43"/>
<stop offset="1" stop-color="#F7DD43" stop-opacity="0"/>
</linearGradient>
<linearGradient id="paint9_linear_175_188" x1="231.5" y1="608" x2="231.5" y2="919.381" gradientUnits="userSpaceOnUse">
<stop stop-color="#F7DD43"/>
<stop offset="1" stop-color="#F7DD43" stop-opacity="0"/>
</linearGradient>
<linearGradient id="paint10_linear_175_188" x1="231.5" y1="608" x2="231.5" y2="919.381" gradientUnits="userSpaceOnUse">
<stop stop-color="#F7DD43"/>
<stop offset="1" stop-color="#F7DD43" stop-opacity="0"/>
</linearGradient>
<linearGradient id="paint11_linear_175_188" x1="231.5" y1="608" x2="231.5" y2="919.381" gradientUnits="userSpaceOnUse">
<stop stop-color="#F7DD43"/>
<stop offset="1" stop-color="#F7DD43" stop-opacity="0"/>
</linearGradient>
<linearGradient id="paint12_linear_175_188" x1="231.5" y1="608" x2="231.5" y2="919.381" gradientUnits="userSpaceOnUse">
<stop stop-color="#F7DD43"/>
<stop offset="1" stop-color="#F7DD43" stop-opacity="0"/>
</linearGradient>
<linearGradient id="paint13_linear_175_188" x1="231.5" y1="608" x2="231.5" y2="919.381" gradientUnits="userSpaceOnUse">
<stop stop-color="#F7DD43"/>
<stop offset="1" stop-color="#F7DD43" stop-opacity="0"/>
</linearGradient>
<linearGradient id="paint14_linear_175_188" x1="231.5" y1="608" x2="231.5" y2="919.381" gradientUnits="userSpaceOnUse">
<stop stop-color="#F7DD43"/>
<stop offset="1" stop-color="#F7DD43" stop-opacity="0"/>
</linearGradient>
<linearGradient id="paint15_linear_175_188" x1="231.5" y1="608" x2="231.5" y2="919.381" gradientUnits="userSpaceOnUse">
<stop stop-color="#F7DD43"/>
<stop offset="1" stop-color="#F7DD43" stop-opacity="0"/>
</linearGradient>
<linearGradient id="paint16_linear_175_188" x1="231.5" y1="608" x2="231.5" y2="919.381" gradientUnits="userSpaceOnUse">
<stop stop-color="#F7DD43"/>
<stop offset="1" stop-color="#F7DD43" stop-opacity="0"/>
</linearGradient>
<linearGradient id="paint17_linear_175_188" x1="231.5" y1="608" x2="231.5" y2="919.381" gradientUnits="userSpaceOnUse">
<stop stop-color="#F7DD43"/>
<stop offset="1" stop-color="#F7DD43" stop-opacity="0"/>
</linearGradient>
<linearGradient id="paint18_linear_175_188" x1="231.5" y1="608" x2="231.5" y2="919.381" gradientUnits="userSpaceOnUse">
<stop stop-color="#F7DD43"/>
<stop offset="1" stop-color="#F7DD43" stop-opacity="0"/>
</linearGradient>
<linearGradient id="paint19_linear_175_188" x1="231.5" y1="608" x2="231.5" y2="919.381" gradientUnits="userSpaceOnUse">
<stop stop-color="#F7DD43"/>
<stop offset="1" stop-color="#F7DD43" stop-opacity="0"/>
</linearGradient>
<linearGradient id="paint20_linear_175_188" x1="231.5" y1="608" x2="231.5" y2="919.381" gradientUnits="userSpaceOnUse">
<stop stop-color="#F7DD43"/>
<stop offset="1" stop-color="#F7DD43" stop-opacity="0"/>
</linearGradient>
<linearGradient id="paint21_linear_175_188" x1="231.5" y1="608" x2="231.5" y2="919.381" gradientUnits="userSpaceOnUse">
<stop stop-color="#F7DD43"/>
<stop offset="1" stop-color="#F7DD43" stop-opacity="0"/>
</linearGradient>
<linearGradient id="paint22_linear_175_188" x1="231.5" y1="608" x2="231.5" y2="919.381" gradientUnits="userSpaceOnUse">
<stop stop-color="#F7DD43"/>
<stop offset="1" stop-color="#F7DD43" stop-opacity="0"/>
</linearGradient>
<linearGradient id="paint23_linear_175_188" x1="231.5" y1="608" x2="231.5" y2="919.381" gradientUnits="userSpaceOnUse">
<stop stop-color="#F7DD43"/>
<stop offset="1" stop-color="#F7DD43" stop-opacity="0"/>
</linearGradient>
<linearGradient id="paint24_linear_175_188" x1="231.5" y1="608" x2="231.5" y2="919.381" gradientUnits="userSpaceOnUse">
<stop stop-color="#F7DD43"/>
<stop offset="1" stop-color="#F7DD43" stop-opacity="0"/>
</linearGradient>
<linearGradient id="paint25_linear_175_188" x1="231.5" y1="608" x2="231.5" y2="919.381" gradientUnits="userSpaceOnUse">
<stop stop-color="#F7DD43"/>
<stop offset="1" stop-color="#F7DD43" stop-opacity="0"/>
</linearGradient>
<linearGradient id="paint26_linear_175_188" x1="231.5" y1="608" x2="231.5" y2="919.381" gradientUnits="userSpaceOnUse">
<stop stop-color="#F7DD43"/>
<stop offset="1" stop-color="#F7DD43" stop-opacity="0"/>
</linearGradient>
<linearGradient id="paint27_linear_175_188" x1="231.5" y1="608" x2="231.5" y2="919.381" gradientUnits="userSpaceOnUse">
<stop stop-color="#F7DD43"/>
<stop offset="1" stop-color="#F7DD43" stop-opacity="0"/>
</linearGradient>
<linearGradient id="paint28_linear_175_188" x1="231.5" y1="608" x2="231.5" y2="919.381" gradientUnits="userSpaceOnUse">
<stop stop-color="#F7DD43"/>
<stop offset="1" stop-color="#F7DD43" stop-opacity="0"/>
</linearGradient>
<linearGradient id="paint29_linear_175_188" x1="231.5" y1="608" x2="231.5" y2="919.381" gradientUnits="userSpaceOnUse">
<stop stop-color="#F7DD43"/>
<stop offset="1" stop-color="#F7DD43" stop-opacity="0"/>
</linearGradient>
<linearGradient id="paint30_linear_175_188" x1="231.5" y1="608" x2="231.5" y2="919.381" gradientUnits="userSpaceOnUse">
<stop stop-color="#F7DD43"/>
<stop offset="1" stop-color="#F7DD43" stop-opacity="0"/>
</linearGradient>
<linearGradient id="paint31_linear_175_188" x1="231.5" y1="608" x2="231.5" y2="919.381" gradientUnits="userSpaceOnUse">
<stop stop-color="#F7DD43"/>
<stop offset="1" stop-color="#F7DD43" stop-opacity="0"/>
</linearGradient>
<linearGradient id="paint32_linear_175_188" x1="231.5" y1="608" x2="231.5" y2="919.381" gradientUnits="userSpaceOnUse">
<stop stop-color="#F7DD43"/>
<stop offset="1" stop-color="#F7DD43" stop-opacity="0"/>
</linearGradient>
<linearGradient id="paint33_linear_175_188" x1="231.5" y1="608" x2="231.5" y2="919.381" gradientUnits="userSpaceOnUse">
<stop stop-color="#F7DD43"/>
<stop offset="1" stop-color="#F7DD43" stop-opacity="0"/>
</linearGradient>
<linearGradient id="paint34_linear_175_188" x1="231.5" y1="608" x2="231.5" y2="919.381" gradientUnits="userSpaceOnUse">
<stop stop-color="#F7DD43"/>
<stop offset="1" stop-color="#F7DD43" stop-opacity="0"/>
</linearGradient>
<linearGradient id="paint35_linear_175_188" x1="231.5" y1="608" x2="231.5" y2="919.381" gradientUnits="userSpaceOnUse">
<stop stop-color="#F7DD43"/>
<stop offset="1" stop-color="#F7DD43" stop-opacity="0"/>
</linearGradient>
<linearGradient id="paint36_linear_175_188" x1="231.5" y1="608" x2="231.5" y2="919.381" gradientUnits="userSpaceOnUse">
<stop stop-color="#F7DD43"/>
<stop offset="1" stop-color="#F7DD43" stop-opacity="0"/>
</linearGradient>
<linearGradient id="paint37_linear_175_188" x1="231.5" y1="608" x2="231.5" y2="919.381" gradientUnits="userSpaceOnUse">
<stop stop-color="#F7DD43"/>
<stop offset="1" stop-color="#F7DD43" stop-opacity="0"/>
</linearGradient>
<linearGradient id="paint38_linear_175_188" x1="231.5" y1="608" x2="231.5" y2="919.381" gradientUnits="userSpaceOnUse">
<stop stop-color="#F7DD43"/>
<stop offset="1" stop-color="#F7DD43" stop-opacity="0"/>
</linearGradient>
<linearGradient id="paint39_linear_175_188" x1="231.5" y1="608" x2="231.5" y2="919.381" gradientUnits="userSpaceOnUse">
<stop stop-color="#F7DD43"/>
<stop offset="1" stop-color="#F7DD43" stop-opacity="0"/>
</linearGradient>
<linearGradient id="paint40_linear_175_188" x1="231.5" y1="608" x2="231.5" y2="919.381" gradientUnits="userSpaceOnUse">
<stop stop-color="#F7DD43"/>
<stop offset="1" stop-color="#F7DD43" stop-opacity="0"/>
</linearGradient>
<linearGradient id="paint41_linear_175_188" x1="231.5" y1="608" x2="231.5" y2="919.381" gradientUnits="userSpaceOnUse">
<stop stop-color="#F7DD43"/>
<stop offset="1" stop-color="#F7DD43" stop-opacity="0"/>
</linearGradient>
<linearGradient id="paint42_linear_175_188" x1="231.5" y1="608" x2="231.5" y2="919.381" gradientUnits="userSpaceOnUse">
<stop stop-color="#F7DD43"/>
<stop offset="1" stop-color="#F7DD43" stop-opacity="0"/>
</linearGradient>
<linearGradient id="paint43_linear_175_188" x1="231.5" y1="608" x2="231.5" y2="919.381" gradientUnits="userSpaceOnUse">
<stop stop-color="#F7DD43"/>
<stop offset="1" stop-color="#F7DD43" stop-opacity="0"/>
</linearGradient>
<linearGradient id="paint44_linear_175_188" x1="231.5" y1="608" x2="231.5" y2="919.381" gradientUnits="userSpaceOnUse">
<stop stop-color="#F7DD43"/>
<stop offset="1" stop-color="#F7DD43" stop-opacity="0"/>
</linearGradient>
<linearGradient id="paint45_linear_175_188" x1="231.5" y1="608" x2="231.5" y2="919.381" gradientUnits="userSpaceOnUse">
<stop stop-color="#F7DD43"/>
<stop offset="1" stop-color="#F7DD43" stop-opacity="0"/>
</linearGradient>
<linearGradient id="paint46_linear_175_188" x1="231.5" y1="608" x2="231.5" y2="919.381" gradientUnits="userSpaceOnUse">
<stop stop-color="#F7DD43"/>
<stop offset="1" stop-color="#F7DD43" stop-opacity="0"/>
</linearGradient>
<linearGradient id="paint47_linear_175_188" x1="1117.5" y1="308" x2="1117.5" y2="606.818" gradientUnits="userSpaceOnUse">
<stop stop-color="#F7DD43"/>
<stop offset="1" stop-color="#F7DD43" stop-opacity="0"/>
</linearGradient>
<linearGradient id="paint48_linear_175_188" x1="1117.5" y1="308" x2="1117.5" y2="606.818" gradientUnits="userSpaceOnUse">
<stop stop-color="#F7DD43"/>
<stop offset="1" stop-color="#F7DD43" stop-opacity="0"/>
</linearGradient>
<linearGradient id="paint49_linear_175_188" x1="1117.5" y1="308" x2="1117.5" y2="606.818" gradientUnits="userSpaceOnUse">
<stop stop-color="#F7DD43"/>
<stop offset="1" stop-color="#F7DD43" stop-opacity="0"/>
</linearGradient>
<linearGradient id="paint50_linear_175_188" x1="1117.5" y1="308" x2="1117.5" y2="606.818" gradientUnits="userSpaceOnUse">
<stop stop-color="#F7DD43"/>
<stop offset="1" stop-color="#F7DD43" stop-opacity="0"/>
</linearGradient>
<linearGradient id="paint51_linear_175_188" x1="1117.5" y1="308" x2="1117.5" y2="606.818" gradientUnits="userSpaceOnUse">
<stop stop-color="#F7DD43"/>
<stop offset="1" stop-color="#F7DD43" stop-opacity="0"/>
</linearGradient>
<linearGradient id="paint52_linear_175_188" x1="1117.5" y1="308" x2="1117.5" y2="606.818" gradientUnits="userSpaceOnUse">
<stop stop-color="#F7DD43"/>
<stop offset="1" stop-color="#F7DD43" stop-opacity="0"/>
</linearGradient>
<linearGradient id="paint53_linear_175_188" x1="1117.5" y1="308" x2="1117.5" y2="606.818" gradientUnits="userSpaceOnUse">
<stop stop-color="#F7DD43"/>
<stop offset="1" stop-color="#F7DD43" stop-opacity="0"/>
</linearGradient>
<linearGradient id="paint54_linear_175_188" x1="1117.5" y1="308" x2="1117.5" y2="606.818" gradientUnits="userSpaceOnUse">
<stop stop-color="#F7DD43"/>
<stop offset="1" stop-color="#F7DD43" stop-opacity="0"/>
</linearGradient>
<linearGradient id="paint55_linear_175_188" x1="1117.5" y1="308" x2="1117.5" y2="606.818" gradientUnits="userSpaceOnUse">
<stop stop-color="#F7DD43"/>
<stop offset="1" stop-color="#F7DD43" stop-opacity="0"/>
</linearGradient>
<linearGradient id="paint56_linear_175_188" x1="1117.5" y1="308" x2="1117.5" y2="606.818" gradientUnits="userSpaceOnUse">
<stop stop-color="#F7DD43"/>
<stop offset="1" stop-color="#F7DD43" stop-opacity="0"/>
</linearGradient>
<linearGradient id="paint57_linear_175_188" x1="1117.5" y1="308" x2="1117.5" y2="606.818" gradientUnits="userSpaceOnUse">
<stop stop-color="#F7DD43"/>
<stop offset="1" stop-color="#F7DD43" stop-opacity="0"/>
</linearGradient>
<linearGradient id="paint58_linear_175_188" x1="1117.5" y1="308" x2="1117.5" y2="606.818" gradientUnits="userSpaceOnUse">
<stop stop-color="#F7DD43"/>
<stop offset="1" stop-color="#F7DD43" stop-opacity="0"/>
</linearGradient>
<linearGradient id="paint59_linear_175_188" x1="1117.5" y1="308" x2="1117.5" y2="606.818" gradientUnits="userSpaceOnUse">
<stop stop-color="#F7DD43"/>
<stop offset="1" stop-color="#F7DD43" stop-opacity="0"/>
</linearGradient>
<linearGradient id="paint60_linear_175_188" x1="1117.5" y1="308" x2="1117.5" y2="606.818" gradientUnits="userSpaceOnUse">
<stop stop-color="#F7DD43"/>
<stop offset="1" stop-color="#F7DD43" stop-opacity="0"/>
</linearGradient>
<linearGradient id="paint61_linear_175_188" x1="1117.5" y1="308" x2="1117.5" y2="606.818" gradientUnits="userSpaceOnUse">
<stop stop-color="#F7DD43"/>
<stop offset="1" stop-color="#F7DD43" stop-opacity="0"/>
</linearGradient>
<linearGradient id="paint62_linear_175_188" x1="1117.5" y1="308" x2="1117.5" y2="606.818" gradientUnits="userSpaceOnUse">
<stop stop-color="#F7DD43"/>
<stop offset="1" stop-color="#F7DD43" stop-opacity="0"/>
</linearGradient>
<linearGradient id="paint63_linear_175_188" x1="1117.5" y1="308" x2="1117.5" y2="606.818" gradientUnits="userSpaceOnUse">
<stop stop-color="#F7DD43"/>
<stop offset="1" stop-color="#F7DD43" stop-opacity="0"/>
</linearGradient>
<linearGradient id="paint64_linear_175_188" x1="1117.5" y1="308" x2="1117.5" y2="606.818" gradientUnits="userSpaceOnUse">
<stop stop-color="#F7DD43"/>
<stop offset="1" stop-color="#F7DD43" stop-opacity="0"/>
</linearGradient>
<linearGradient id="paint65_linear_175_188" x1="1117.5" y1="308" x2="1117.5" y2="606.818" gradientUnits="userSpaceOnUse">
<stop stop-color="#F7DD43"/>
<stop offset="1" stop-color="#F7DD43" stop-opacity="0"/>
</linearGradient>
<linearGradient id="paint66_linear_175_188" x1="1117.5" y1="308" x2="1117.5" y2="606.818" gradientUnits="userSpaceOnUse">
<stop stop-color="#F7DD43"/>
<stop offset="1" stop-color="#F7DD43" stop-opacity="0"/>
</linearGradient>
<linearGradient id="paint67_linear_175_188" x1="1117.5" y1="308" x2="1117.5" y2="606.818" gradientUnits="userSpaceOnUse">
<stop stop-color="#F7DD43"/>
<stop offset="1" stop-color="#F7DD43" stop-opacity="0"/>
</linearGradient>
<linearGradient id="paint68_linear_175_188" x1="1117.5" y1="308" x2="1117.5" y2="606.818" gradientUnits="userSpaceOnUse">
<stop stop-color="#F7DD43"/>
<stop offset="1" stop-color="#F7DD43" stop-opacity="0"/>
</linearGradient>
<linearGradient id="paint69_linear_175_188" x1="1117.5" y1="308" x2="1117.5" y2="606.818" gradientUnits="userSpaceOnUse">
<stop stop-color="#F7DD43"/>
<stop offset="1" stop-color="#F7DD43" stop-opacity="0"/>
</linearGradient>
<linearGradient id="paint70_linear_175_188" x1="1117.5" y1="308" x2="1117.5" y2="606.818" gradientUnits="userSpaceOnUse">
<stop stop-color="#F7DD43"/>
<stop offset="1" stop-color="#F7DD43" stop-opacity="0"/>
</linearGradient>
<linearGradient id="paint71_linear_175_188" x1="1117.5" y1="308" x2="1117.5" y2="606.818" gradientUnits="userSpaceOnUse">
<stop stop-color="#F7DD43"/>
<stop offset="1" stop-color="#F7DD43" stop-opacity="0"/>
</linearGradient>
<linearGradient id="paint72_linear_175_188" x1="1117.5" y1="308" x2="1117.5" y2="606.818" gradientUnits="userSpaceOnUse">
<stop stop-color="#F7DD43"/>
<stop offset="1" stop-color="#F7DD43" stop-opacity="0"/>
</linearGradient>
<linearGradient id="paint73_linear_175_188" x1="1117.5" y1="308" x2="1117.5" y2="606.818" gradientUnits="userSpaceOnUse">
<stop stop-color="#F7DD43"/>
<stop offset="1" stop-color="#F7DD43" stop-opacity="0"/>
</linearGradient>
<linearGradient id="paint74_linear_175_188" x1="1117.5" y1="308" x2="1117.5" y2="606.818" gradientUnits="userSpaceOnUse">
<stop stop-color="#F7DD43"/>
<stop offset="1" stop-color="#F7DD43" stop-opacity="0"/>
</linearGradient>
<linearGradient id="paint75_linear_175_188" x1="1117.5" y1="308" x2="1117.5" y2="606.818" gradientUnits="userSpaceOnUse">
<stop stop-color="#F7DD43"/>
<stop offset="1" stop-color="#F7DD43" stop-opacity="0"/>
</linearGradient>
<linearGradient id="paint76_linear_175_188" x1="1117.5" y1="308" x2="1117.5" y2="606.818" gradientUnits="userSpaceOnUse">
<stop stop-color="#F7DD43"/>
<stop offset="1" stop-color="#F7DD43" stop-opacity="0"/>
</linearGradient>
<linearGradient id="paint77_linear_175_188" x1="1117.5" y1="308" x2="1117.5" y2="606.818" gradientUnits="userSpaceOnUse">
<stop stop-color="#F7DD43"/>
<stop offset="1" stop-color="#F7DD43" stop-opacity="0"/>
</linearGradient>
<linearGradient id="paint78_linear_175_188" x1="1117.5" y1="308" x2="1117.5" y2="606.818" gradientUnits="userSpaceOnUse">
<stop stop-color="#F7DD43"/>
<stop offset="1" stop-color="#F7DD43" stop-opacity="0"/>
</linearGradient>
<linearGradient id="paint79_linear_175_188" x1="1117.5" y1="308" x2="1117.5" y2="606.818" gradientUnits="userSpaceOnUse">
<stop stop-color="#F7DD43"/>
<stop offset="1" stop-color="#F7DD43" stop-opacity="0"/>
</linearGradient>
<linearGradient id="paint80_linear_175_188" x1="1117.5" y1="308" x2="1117.5" y2="606.818" gradientUnits="userSpaceOnUse">
<stop stop-color="#F7DD43"/>
<stop offset="1" stop-color="#F7DD43" stop-opacity="0"/>
</linearGradient>
<linearGradient id="paint81_linear_175_188" x1="1117.5" y1="308" x2="1117.5" y2="606.818" gradientUnits="userSpaceOnUse">
<stop stop-color="#F7DD43"/>
<stop offset="1" stop-color="#F7DD43" stop-opacity="0"/>
</linearGradient>
<linearGradient id="paint82_linear_175_188" x1="1117.5" y1="308" x2="1117.5" y2="606.818" gradientUnits="userSpaceOnUse">
<stop stop-color="#F7DD43"/>
<stop offset="1" stop-color="#F7DD43" stop-opacity="0"/>
</linearGradient>
<linearGradient id="paint83_linear_175_188" x1="1117.5" y1="308" x2="1117.5" y2="606.818" gradientUnits="userSpaceOnUse">
<stop stop-color="#F7DD43"/>
<stop offset="1" stop-color="#F7DD43" stop-opacity="0"/>
</linearGradient>
<linearGradient id="paint84_linear_175_188" x1="1117.5" y1="308" x2="1117.5" y2="606.818" gradientUnits="userSpaceOnUse">
<stop stop-color="#F7DD43"/>
<stop offset="1" stop-color="#F7DD43" stop-opacity="0"/>
</linearGradient>
<linearGradient id="paint85_linear_175_188" x1="1117.5" y1="308" x2="1117.5" y2="606.818" gradientUnits="userSpaceOnUse">
<stop stop-color="#F7DD43"/>
<stop offset="1" stop-color="#F7DD43" stop-opacity="0"/>
</linearGradient>
<linearGradient id="paint86_linear_175_188" x1="1117.5" y1="308" x2="1117.5" y2="606.818" gradientUnits="userSpaceOnUse">
<stop stop-color="#F7DD43"/>
<stop offset="1" stop-color="#F7DD43" stop-opacity="0"/>
</linearGradient>
<linearGradient id="paint87_linear_175_188" x1="1117.5" y1="308" x2="1117.5" y2="606.818" gradientUnits="userSpaceOnUse">
<stop stop-color="#F7DD43"/>
<stop offset="1" stop-color="#F7DD43" stop-opacity="0"/>
</linearGradient>
<linearGradient id="paint88_linear_175_188" x1="1117.5" y1="308" x2="1117.5" y2="606.818" gradientUnits="userSpaceOnUse">
<stop stop-color="#F7DD43"/>
<stop offset="1" stop-color="#F7DD43" stop-opacity="0"/>
</linearGradient>
<linearGradient id="paint89_linear_175_188" x1="1117.5" y1="308" x2="1117.5" y2="606.818" gradientUnits="userSpaceOnUse">
<stop stop-color="#F7DD43"/>
<stop offset="1" stop-color="#F7DD43" stop-opacity="0"/>
</linearGradient>
<linearGradient id="paint90_linear_175_188" x1="1117.5" y1="308" x2="1117.5" y2="606.818" gradientUnits="userSpaceOnUse">
<stop stop-color="#F7DD43"/>
<stop offset="1" stop-color="#F7DD43" stop-opacity="0"/>
</linearGradient>
<linearGradient id="paint91_linear_175_188" x1="1117.5" y1="308" x2="1117.5" y2="606.818" gradientUnits="userSpaceOnUse">
<stop stop-color="#F7DD43"/>
<stop offset="1" stop-color="#F7DD43" stop-opacity="0"/>
</linearGradient>
<linearGradient id="paint92_linear_175_188" x1="1117.5" y1="308" x2="1117.5" y2="606.818" gradientUnits="userSpaceOnUse">
<stop stop-color="#F7DD43"/>
<stop offset="1" stop-color="#F7DD43" stop-opacity="0"/>
</linearGradient>
<linearGradient id="paint93_linear_175_188" x1="1117.5" y1="308" x2="1117.5" y2="606.818" gradientUnits="userSpaceOnUse">
<stop stop-color="#F7DD43"/>
<stop offset="1" stop-color="#F7DD43" stop-opacity="0"/>
</linearGradient>
</defs>
</svg>
